<?xml version="1.0" encoding="utf-8"?>
<!-- Generator: Adobe Illustrator 19.2.1, SVG Export Plug-In . SVG Version: 6.00 Build 0)  -->
<svg version="1.1" id="layer" xmlns="http://www.w3.org/2000/svg" xmlns:xlink="http://www.w3.org/1999/xlink" x="0px" y="0px"
	 viewBox="0 0 652 652" style="enable-background:new 0 0 652 652;" xml:space="preserve">
<style type="text/css">
	.st0{fill:#004992;}
	.st1{fill-rule:evenodd;clip-rule:evenodd;fill:#004992;}
	.st2{fill-rule:evenodd;clip-rule:evenodd;fill:#E2000F;}
	.st3{fill:#E2000F;}
	.st4{filter:url(#Adobe_OpacityMaskFilter);}
	.st5{enable-background:new    ;}
	.st6{clip-path:url(#SVGID_3_);fill:url(#SVGID_4_);}
	.st7{mask:url(#SVGID_1_);}
	.st8{clip-path:url(#SVGID_6_);}
	.st9{clip-path:url(#SVGID_8_);fill:#E2000F;}
</style>
<g>
	<path class="st0" d="M35.5,309.3h23h1.5c-0.3,1.8-0.4,3.8,0.6,5.4c0.9,1.4,2.4,2.1,4,2.4c3.5,0.6,8.8,0.2,10.8-3.3
		c0.6-1.1,1-2.6,0.4-3.8c-0.5-1.2-1.6-2-2.7-2.5c-1.7-0.9-3.7-1.4-5.6-1.9c-2.2-0.5-4.4-1-6.6-1.6c-3.6-0.9-7.3-2-10.7-3.5
		c-2.3-1-4.7-2.2-6.3-4.2c-2.4-2.9-3-6.7-2.6-10.4c0.4-3.8,1.7-7.6,3.9-10.7c4.3-6.2,11.6-9.3,18.8-10.7c4.4-0.9,8.9-1.1,13.4-1.1
		c4.2,0,8.4,0.4,12.5,1.5c3.2,0.8,6.3,2.2,8.8,4.3c2.7,2.3,4.4,5.5,5,9c0.1,0.5,0.5,5.2,0.3,5.2h-1h-5.6H81.3c0.1-2-0.6-3.8-2.2-4.9
		c-1.7-1.2-3.8-1.4-5.9-1.3c-1.9,0.1-3.9,0.6-5.2,1.9c-1,1-1.6,2.6-1.2,3.9c0.4,1.2,1.5,2,2.6,2.5c1.8,0.9,3.8,1.4,5.8,1.8
		c4.2,0.9,8.4,1.9,12.4,3.3c5.5,1.8,12,4.2,13.8,10.3c1.1,3.8,0.6,8-0.6,11.7c-1.1,3.5-2.9,6.7-5.5,9.3c-5.2,5.3-12.7,7.7-19.9,8.8
		c-4.5,0.7-9.1,0.9-13.7,0.7c-4.1-0.1-8.2-0.5-12.2-1.7c-4.1-1.2-8.1-3.2-10.8-6.6C35.7,319.3,35,314.1,35.5,309.3"/>
	<path class="st1" d="M159.6,297.6c0.6-3.5,1.2-7.8-0.6-11.1c-1.8-3.4-5.8-4-9.3-3.5c-3.6,0.5-6.5,2.7-8.2,5.8
		c-2,3.6-2.9,8-3.2,12.1c-0.2,2.8-0.1,6.1,1.8,8.4c1.9,2.4,5.3,2.9,8.2,2.5C155.5,311,158.5,303.9,159.6,297.6 M104.1,354.8
		c0.7-4,1.4-8,2.1-12c1.6-9.1,3.2-18.2,4.8-27.3c1.7-9.8,3.5-19.7,5.2-29.5c1.1-6.2,2.2-12.5,3.3-18.7c0.1-0.5,0.2-1,0.3-1.5
		c0.1-0.3,1-0.1,1.3-0.1h13.5h7.6c-0.5,2.7-1,5.4-1.4,8.1c2.9-3.2,6.4-6,10.5-7.7c4.1-1.7,8.6-2.3,13.1-2.1c3.7,0.1,7.3,1,10.5,2.8
		c3.1,1.8,5.5,4.4,7.3,7.5c4.1,7.1,4.1,15.7,2.7,23.5c-1.4,7.9-4.4,15.7-9.6,21.9c-5,5.9-11.8,10.2-19.5,11.3
		c-4.1,0.6-8.5,0.6-12.5-0.7c-3.8-1.2-6.9-3.7-8.9-7.1c-1.3,7.6-2.7,15.1-4,22.7c-0.5,2.9-1,5.8-1.5,8.8c0,0.2-2,0-2.2,0h-6.3H104.1
		"/>
	<path class="st0" d="M189.8,329.3c0.9-5.2,1.8-10.4,2.7-15.5c1.7-9.9,3.5-19.7,5.2-29.6c1.1-6.1,2.1-12.1,3.2-18.2
		c0.1-0.4,0.7-0.2,1.1-0.2h5.6h14.2h2.5c-0.7,3.9-1.4,7.7-2,11.6c2.5-4.7,6.1-8.9,11-11.1c4.2-1.9,8.8-2.1,13.4-2.1
		c-1.3,7.6-2.7,15.3-4,22.9c-0.1,0.6-0.2,1.2-0.3,1.8c-0.1,0.8-0.3,0.5-1.3,0.4c-4.2-0.3-8.6-0.4-12.6,1.3
		c-5.6,2.4-7.8,7.9-8.8,13.6c-1.4,8.1-2.9,16.3-4.3,24.4c-0.1,0.8,0,0.9-0.7,0.9h-4.7h-14.7H189.8"/>
	<path class="st1" d="M273.1,290.3h22.1h0.3c0.1,0,0.1-1.2,0.2-1.4c0.1-1.7,0-3.5-0.6-5.1c-1-3.1-3.6-4.7-6.7-5.2
		c-3.6-0.5-7.3,0.2-10.1,2.5C275.5,283.4,273.9,286.8,273.1,290.3 M290.8,310.5h22.9h1.3c-3.1,7.3-8.7,13.1-15.9,16.6
		c-7.7,3.7-16.6,4.8-25,4.5c-7.4-0.3-15-2.2-20.5-7.3c-5.6-5.1-7.9-12.4-7.6-19.9c0.2-8.1,2.7-16.3,7.1-23.1
		c4.3-6.4,10.6-11.5,17.7-14.4c7.7-3.2,16.5-4.1,24.8-3c7,0.9,13.7,3.8,18.2,9.4c4.7,5.8,6.1,13.4,5.8,20.8
		c-0.1,2.3-0.3,4.5-0.7,6.7c0,0.2-0.3,2.4-0.4,2.4c-0.7,0-1.3,0-2,0c-8.7,0-17.5,0-26.2,0c-4.5,0-9,0-13.5,0c-1.4,0-2.8,0-4.2,0
		c-0.4,0-0.8,0-1.1,0c-0.3,0-0.4-0.1-0.4,0.3c-0.3,2.6-0.3,5.3,0.8,7.7c1,2,2.8,3.5,4.9,4.1C281.5,316.7,288.3,315.3,290.8,310.5"/>
	<path class="st0" d="M370.9,304.5H394h2.1c-1.9,7.7-6.2,14.4-12.5,19.1c-6.6,4.9-14.7,7.3-22.9,7.8c-7.8,0.5-16.2-0.3-23.1-4.3
		c-6.1-3.6-10.3-9.7-11.5-16.7c-0.7-4.1-0.5-8.4,0.2-12.5c0.7-4,1.8-8,3.5-11.7c3.2-7,8.5-12.9,15.1-16.8c7.2-4.3,15.5-6,23.8-6
		c7.6,0,15.8,1.3,22,6c2.9,2.2,5.2,5,6.6,8.3c1.5,3.6,1.7,7.5,1.3,11.3c-0.1,0.8,0,0.8-0.7,0.8H396h-6.4h-16.4
		c0.3-3.6-0.6-7.3-4.4-8.4c-3.6-1-8-0.3-10.9,2.2c-2.7,2.4-4.1,5.9-5,9.2c-1.2,4.1-1.9,8.6-1.7,12.9c0.1,2,0.6,4.2,1.9,5.8
		c1.5,1.8,3.9,2.4,6.2,2.4c2.8,0,5.5-0.8,7.6-2.7C369,309.5,370.2,307,370.9,304.5"/>
	<path class="st0" d="M402.1,329.3c0.7-4.1,1.4-8.2,2.2-12.3c1.6-9.2,3.3-18.4,4.9-27.7c1.7-9.7,3.4-19.4,5.1-29.1
		c1-5.5,1.9-11,2.9-16.5c0-0.2,0-0.6,0.2-0.6h3.7h14.6h6.8c-1.3,7.6-2.7,15.3-4,23c-0.4,2.1-0.7,4.2-1.1,6.4
		c3.3-3.1,7.1-5.5,11.4-6.9c4.4-1.5,9.2-1.9,13.8-1.3c4.1,0.5,8.1,2,11,4.9c3,3,4.3,7,4.6,11.1c0.3,5.5-0.8,11.2-1.8,16.6l-1.9,10.9
		c-0.9,4.9-1.7,9.8-2.6,14.7c-0.3,1.7-0.6,3.4-0.9,5.1c0,0.1-0.2,1.7-0.3,1.7H447h-1.6c1.3-7.4,2.6-14.9,3.9-22.3
		c0.6-3.4,1.2-6.8,1.8-10.2c0.4-2.4,0.8-4.9,0.6-7.4c-0.1-1.3-0.3-2.7-1.2-3.8c-1.1-1.3-2.8-1.8-4.4-1.9c-3.9-0.4-7.7,1-9.9,4.3
		c-1.7,2.5-2.6,5.6-3.1,8.6c-0.5,3-1.1,6.1-1.6,9.1c-1.4,7.8-2.8,15.7-4.1,23.5c0,0.2-1.8,0.1-2,0.1h-6.1H405H402.1"/>
	<path class="st1" d="M512.6,290.3h22.1h0.3c0.1,0,0.1-1.2,0.2-1.4c0.1-1.7,0-3.5-0.6-5.1c-1-3.1-3.6-4.7-6.7-5.2
		c-3.6-0.5-7.3,0.2-10.1,2.5C515,283.4,513.4,286.8,512.6,290.3 M530.3,310.5h22.9h1.3c-3.1,7.3-8.7,13.1-15.9,16.6
		c-7.7,3.7-16.6,4.8-25,4.5c-7.4-0.3-15-2.2-20.5-7.3c-5.6-5.1-7.9-12.4-7.6-19.9c0.2-8.1,2.7-16.3,7.1-23.1
		c4.3-6.4,10.6-11.5,17.7-14.4c7.7-3.2,16.5-4.1,24.8-3c7,0.9,13.7,3.8,18.2,9.4c4.7,5.8,6.1,13.4,5.8,20.8
		c-0.1,2.3-0.4,4.5-0.7,6.7c0,0.2-0.3,2.4-0.4,2.4l-2,0l-26.2,0c-4.5,0-9,0-13.5,0c-1.4,0-2.8,0-4.2,0c-0.4,0-0.8,0-1.1,0
		c-0.3,0-0.4-0.1-0.4,0.3c-0.3,2.6-0.3,5.3,0.8,7.7c1,2,2.8,3.5,4.9,4.1C521,316.7,527.7,315.3,530.3,310.5"/>
	<path class="st0" d="M563.7,329.3c0.9-5.2,1.8-10.4,2.7-15.5c1.7-9.9,3.5-19.7,5.2-29.6c1.1-6.1,2.1-12.1,3.2-18.2
		c0.1-0.4,0.7-0.2,1.1-0.2h5.6h14.2h2.5c-0.7,3.9-1.4,7.7-2,11.6c2.5-4.7,6.1-8.9,11-11.1c4.2-1.9,8.8-2.1,13.4-2.1
		c-1.3,7.6-2.7,15.3-4,22.9c-0.1,0.6-0.2,1.2-0.3,1.8c-0.1,0.8-0.3,0.5-1.3,0.4c-4.2-0.3-8.6-0.4-12.6,1.3
		c-5.6,2.4-7.8,7.9-8.8,13.6c-1.4,8.1-2.9,16.3-4.3,24.4c-0.1,0.8,0,0.9-0.7,0.9h-4.7H569H563.7"/>
	<path class="st2" d="M221,367.5c-1.3,7.5-2.6,15-4,22.5c-0.6,3.2-1.1,6.4-1.7,9.6c0,0.2,0,0.2-0.3,0.2h-2.5h-7.2h-1.5
		c0.2-1.2,0.4-2.4,0.6-3.6c-3.2,3.3-7.3,4.9-11.9,4.6c-3.8-0.3-7.2-1.9-9.6-4.8c-5.2-6.4-3-16.3,2-22.2c2.9-3.5,7-6.2,11.5-7
		c2.3-0.4,4.8-0.4,7,0.2c2.2,0.6,4,2,5.5,3.7c0.1-0.3,0.4-3.2,0.6-3.2h3.3H221 M192.4,383.7c-0.7,4.1,2.1,7.5,6.3,7.4
		c4.2-0.1,7.8-3.5,8.4-7.6c0.6-4.2-2.6-7.5-6.8-7.1c-2.1,0.2-3.9,1.2-5.4,2.7c-0.7,0.7-1.3,1.4-1.7,2.3
		C192.8,382,192.5,383.1,192.4,383.7"/>
	<path class="st3" d="M241,385.8c-0.3,1.7-0.3,3.7,1,4.9c1.4,1.3,3.7,1.3,5.5,0.9c3.1-0.6,4.6-3.1,5.1-6.1l2.2-12.4
		c0.3-1.6,0.6-3.2,0.9-4.9c0-0.1,0-0.7,0.1-0.8c0.2-0.1,1,0,1.2,0h10.2c-1.2,6.8-2.4,13.7-3.6,20.5c-0.7,3.7-2.5,7.2-5.6,9.5
		c-3.1,2.3-6.9,3.2-10.7,3.6c-6.6,0.6-17.1-0.1-18.3-8.4c-0.3-2,0-3.9,0.4-5.9c0.4-2,0.7-4,1.1-6c0.7-4.2,1.5-8.4,2.2-12.7
		c0.1-0.5,0-0.6,0.5-0.6h3.8h7.2C243.2,373.6,242.1,379.7,241,385.8"/>
	<path class="st3" d="M286.2,399.8h-11.4c1.3-7.4,2.6-14.7,3.9-22.1c0-0.2,0.1-0.4,0.1-0.7h-3.8c0.3-1.8,0.6-3.5,0.9-5.3l0.6-3.3
		c0.1-0.5,0-0.9,0.5-0.9h3.2c0.4,0,0.3-0.8,0.4-1.1c0.4-2.3,0.8-4.6,1.2-6.9c0.1-0.3,0.1-1.7,0.5-1.7h3.5h7.7
		c-0.6,3.2-1.1,6.5-1.7,9.7h6.5c-0.3,1.8-0.6,3.5-0.9,5.3l-0.6,3.3c-0.1,0.4,0,0.9-0.4,0.9h-6.1c-0.4,0-0.5,2-0.6,2.3L286.2,399.8"
		/>
	<path class="st2" d="M302.6,383.6c1.4-8.1,7.9-14.4,15.8-16.4c7.3-1.9,16.9-0.9,21.3,6c4.3,6.7,1.3,16.2-4.1,21.4
		c-6,5.7-15.3,7.9-23.3,5.5c-3.3-1-6.2-3-8.1-5.9C302.3,391,302,387.2,302.6,383.6 M314.7,383.5c-0.7,4.1,2.1,7.6,6.3,7.5
		c4.1-0.1,7.7-3.4,8.4-7.4c0.7-4.2-2.3-7.6-6.5-7.4c-2.2,0.1-4.1,1.1-5.7,2.6c-0.7,0.7-1.3,1.4-1.7,2.3
		C315.1,381.9,314.9,383,314.7,383.5"/>
	<path class="st3" d="M366.2,367.5c-0.2,1.3-0.5,2.6-0.7,3.9c1.8-1.3,3.6-2.7,5.7-3.5c2-0.8,4.2-1,6.4-0.9c1.9,0.1,3.9,0.5,5.5,1.6
		s2.8,2.7,3.5,4.5c2.7-3.5,6.6-5.8,11.1-6c3.5-0.2,7.3,0.6,9,4c2,4,0.5,8.9-0.2,13.1c-0.8,4.6-1.6,9.2-2.4,13.8
		c-0.1,0.6-0.2,1.1-0.3,1.7c-0.1,0.3-0.1,0.2-0.4,0.2H397h-4.6c0.7-3.8,1.3-7.5,2-11.3c0.3-1.5,0.5-3.1,0.8-4.6
		c0.4-2.4,1.4-6.9-1.9-7.8c-1.8-0.5-3.8-0.1-5.3,1.2c-1.4,1.2-2.2,3-2.6,4.8c-0.4,1.6-0.7,3.2-0.9,4.8l-2.2,12.6
		c-0.1,0.5-0.4,0.3-0.9,0.3h-4h-6.6l2-11.3c0.3-1.5,0.5-3.1,0.8-4.6c0.4-2.4,1.4-7-1.7-8c-1.7-0.5-3.9-0.2-5.3,0.9
		c-1.3,1.1-2.1,2.8-2.5,4.4c-0.5,1.7-0.7,3.5-1.1,5.2c-0.8,4.3-1.5,8.6-2.3,12.8c-0.1,0.5-0.2,0.4-0.7,0.4h-3.8h-6.9
		c1.3-7.5,2.6-15,4-22.5c0.6-3.2,1.1-6.4,1.7-9.6c0-0.2,0-0.2,0.3-0.2h2.5h7.2H366.2"/>
	<path class="st2" d="M457.7,367.5c-1.3,7.5-2.6,15-4,22.5c-0.6,3.2-1.1,6.4-1.7,9.6c0,0.2,0,0.2-0.3,0.2h-2.5h-7.2h-1.5
		c0.2-1.2,0.4-2.4,0.6-3.6c-3.2,3.3-7.3,4.9-11.9,4.6c-3.8-0.3-7.2-1.9-9.6-4.8c-5.2-6.4-3-16.3,2-22.2c2.9-3.5,7-6.2,11.5-7
		c2.3-0.4,4.8-0.4,7,0.2c2.2,0.6,4,2,5.5,3.7c0.1-0.3,0.4-3.2,0.6-3.2h3.3H457.7 M429.1,383.7c-0.7,4.1,2.1,7.5,6.3,7.4
		c4.2-0.1,7.8-3.5,8.4-7.6c0.6-4.2-2.6-7.5-6.8-7.1c-2.1,0.2-3.9,1.2-5.4,2.7C430.2,380.3,429.5,382.1,429.1,383.7"/>
	<path class="st3" d="M476.7,399.8h-11.4c1.3-7.4,2.6-14.7,3.9-22.1c0-0.2,0.1-0.4,0.1-0.7h-3.8c0.3-1.8,0.6-3.5,0.9-5.3
		c0.2-1.1,0.4-2.2,0.6-3.3c0.1-0.5,0-0.9,0.5-0.9h3.2c0.4,0,0.3-0.8,0.4-1.1c0.4-2.3,0.8-4.6,1.2-6.9c0.1-0.3,0.1-1.7,0.5-1.7h3.5
		h7.7c-0.6,3.2-1.1,6.5-1.7,9.7h6.5c-0.3,1.8-0.6,3.5-0.9,5.3c-0.2,1.1-0.4,2.2-0.6,3.3c-0.1,0.4,0,0.9-0.4,0.9h-6.1
		c-0.4,0-0.5,2-0.6,2.3C479.1,386.1,477.9,392.9,476.7,399.8"/>
	<path class="st2" d="M502.9,399.8h-11.4c1.3-7.5,2.6-15,4-22.5c0.6-3.2,1.1-6.4,1.7-9.6c0-0.2,0-0.2,0.3-0.2h2.5h7.2h1.5
		c-1.3,7.5-2.6,15-4,22.5C504,393.3,503.4,396.5,502.9,399.8 M498.6,355.1c0.6-3.4,3.8-6.2,7.3-6.3c3.6-0.1,6.2,2.8,5.5,6.4
		c-0.6,3.4-3.8,6.3-7.3,6.4C500.5,361.7,498,358.6,498.6,355.1"/>
	<path class="st2" d="M516.3,383.6c1.4-8.1,7.9-14.4,15.8-16.4c7.3-1.9,16.9-0.9,21.3,6c4.3,6.7,1.3,16.2-4.1,21.4
		c-6,5.7-15.3,7.9-23.3,5.5c-3.3-1-6.2-3-8.1-5.9C516,391,515.7,387.2,516.3,383.6 M528.4,383.5c-0.7,4.1,2.1,7.6,6.3,7.5
		c4.1-0.1,7.7-3.4,8.4-7.4c0.7-4.2-2.3-7.6-6.5-7.4c-2.2,0.1-4.1,1.1-5.7,2.6c-0.7,0.7-1.3,1.4-1.7,2.3
		C528.8,381.9,528.6,383,528.4,383.5"/>
	<path class="st3" d="M579.9,367.5c-0.2,1.4-0.5,2.7-0.7,4.1c1.8-1.5,3.5-3,5.7-3.8c2-0.8,4.3-0.9,6.4-0.9c3.6,0.1,7.1,1.4,8.6,4.9
		c1.8,4,0.3,8.9-0.4,13.1l-2.4,13.6c-0.1,0.4-0.2,0.9-0.2,1.3c0,0.2-0.7,0.1-0.8,0.1h-6.9h-3.7c0.7-3.7,1.3-7.4,2-11.2
		c0.3-1.7,0.6-3.3,0.9-5c0.4-2.3,1.1-6.3-1.7-7.4c-3.9-1.5-7.9,1.1-9,4.8c-0.4,1.4-0.6,2.9-0.9,4.4c-0.8,4.4-1.6,8.9-2.3,13.3
		c-0.1,0.3,0,1-0.4,1h-3.5h-7.7c1.3-7.5,2.6-15,4-22.5c0.6-3.2,1.1-6.4,1.7-9.6c0-0.2,0-0.2,0.3-0.2h2.5h7.2H579.9"/>
	<defs>
		<filter id="Adobe_OpacityMaskFilter" filterUnits="userSpaceOnUse" x="20.6" y="367.6" width="155" height="33.3">
			<feFlood  style="flood-color:white;flood-opacity:1" result="back"/>
			<feBlend  in="SourceGraphic" in2="back" mode="normal"/>
		</filter>
	</defs>
	<mask maskUnits="userSpaceOnUse" x="20.6" y="367.6" width="155" height="33.3" id="SVGID_1_">
		<g class="st4">
			<rect x="20.6" y="367.6" width="155" height="33.3"/>
			<g class="st5">
				<g>
					<defs>
						<path id="SVGID_2_" d="M24.7,367.6c-0.7,3.6-1.3,7.2-2,10.8c-0.7,3.7-1.4,7.4-2.1,11v11.4h150.9c0,0,0-0.1,0-0.1
							c0.7-3.6,1.3-7.1,2-10.7c0.7-3.7,1.4-7.3,2-11v-11.4H24.7z"/>
					</defs>
					<clipPath id="SVGID_3_">
						<use xlink:href="#SVGID_2_"  style="overflow:visible;"/>
					</clipPath>
					
						<linearGradient id="SVGID_4_" gradientUnits="userSpaceOnUse" x1="-554.0897" y1="754.5687" x2="-549.5476" y2="754.5687" gradientTransform="matrix(35.0938 0 0 -35.0938 19463.502 26864.9082)">
						<stop  offset="0" style="stop-color:#FFFFFF"/>
						<stop  offset="1" style="stop-color:#231815"/>
					</linearGradient>
					<rect x="20.6" y="367.6" class="st6" width="155" height="33.3"/>
				</g>
			</g>
		</g>
	</mask>
	<g class="st7">
		<g>
			<defs>
				<rect id="SVGID_5_" x="20.6" y="367.6" width="155" height="33.3"/>
			</defs>
			<clipPath id="SVGID_6_">
				<use xlink:href="#SVGID_5_"  style="overflow:visible;"/>
			</clipPath>
			<g class="st8">
				<defs>
					<rect id="SVGID_7_" x="20.6" y="367.6" width="155" height="33.3"/>
				</defs>
				<clipPath id="SVGID_8_">
					<use xlink:href="#SVGID_7_"  style="overflow:visible;"/>
				</clipPath>
				<path class="st9" d="M26.8,367.6h8.8h22.5h30.5h32.7h29.1h19.8h5.3c-1.4,7.4-2.8,14.9-4.1,22.3c-0.6,3.5-1.3,6.9-1.9,10.4
					c0,0.2,0,0.6-0.3,0.6h-1.2h-14.6h-26.2h-32h-32H36.9H22h-1.4c1.4-7.4,2.8-14.9,4.2-22.3C25.4,374.9,26.1,371.2,26.8,367.6"/>
			</g>
		</g>
	</g>
</g>
</svg>
